<?xml version="1.0" encoding="utf-8"?>
<!-- Generator: Adobe Illustrator 26.3.1, SVG Export Plug-In . SVG Version: 6.00 Build 0)  -->
<svg version="1.1" id="Layer_1" xmlns="http://www.w3.org/2000/svg" xmlns:xlink="http://www.w3.org/1999/xlink" x="0px" y="0px"
	 viewBox="0 0 640 300" style="enable-background:new 0 0 640 300;" xml:space="preserve">
<style type="text/css">
	.st0{fill:#FFFFFF;}
	.st1{fill:#EC2227;}
</style>
<g>
	
		<image style="overflow:visible;opacity:0.35;" width="2631" height="252" xlink:href="8F597B41F4BA4C52.png"  transform="matrix(0.24 0 0 0.24 7.56 5.6)">
	</image>
	<g>
		<g>
			<path class="st0" d="M70.4,10.4L58.9,51.1H48.6L42,28.3l-6.5,22.8H25.2L13.7,10.4H24l7,27.9l7.6-27.9h7l7.6,27.9l6.9-27.9H70.4z"
				/>
			<path class="st0" d="M83.3,10.4v40.7H74V10.4H83.3z"/>
			<path class="st0" d="M100.4,10.4l16.3,25.2V10.4h9.3v40.7h-9.3l-16.3-25.2v25.2h-9.3V10.4H100.4z"/>
			<path class="st0" d="M157.5,10.4v8.1h-9.7v32.5h-9.3V18.6h-9.7v-8.1H157.5z"/>
			<path class="st0" d="M186.1,10.4v8.1h-14v8.1h13.4v8.1h-13.4V43h14v8.1h-23.3V10.4H186.1z"/>
			<path class="st0" d="M208.2,10.4c7.9,0,13.9,4.1,13.9,12.5c0,6.4-3.4,10.6-8.5,12.3l13.3,15.9H215L203.4,36h-0.7v15.1h-9.3V10.4
				H208.2z M202.6,28.6h2.6c3.6,0,7.1-1.2,7.1-5.4c0-4.2-3.5-5.4-7.1-5.4h-2.6V28.6z"/>
			<path class="st0" d="M239.9,10.4v40.7h-9.3V10.4H239.9z"/>
			<path class="st0" d="M257,10.4l16.3,25.2V10.4h9.3v40.7h-9.3L257,25.9v25.2h-9.3V10.4H257z"/>
			<path class="st0" d="M308.4,9.7c7.1,0,12.1,2.7,15.7,6.9l-6.1,6.7c-2.4-3.8-5.5-5.2-9.1-5.2c-5.7,0-10.4,5.7-10.4,12.7
				c0,6.9,4.6,12.6,10.4,12.6c4.2,0,8.8-2.7,8.8-7.6v-0.2h-9.4v-7.1h18.8v7.1c0,7.4-6.9,16.4-18.8,16.4c-10.9,0-19.8-9.5-19.8-21.1
				C288.6,19.1,297,9.7,308.4,9.7z"/>
			<path class="st0" d="M363.5,10.4c7.9,0,13.9,4.1,13.9,12.5c0,8.4-6,13.1-13.9,13.1H358v15.1h-9.3V10.4H363.5z M358,28.6h2.6
				c3.6,0,7.1-1.2,7.1-5.4c0-4.2-3.5-5.4-7.1-5.4H358V28.6z"/>
			<path class="st0" d="M401,10.4l16.4,40.7h-10l-3-8.1H389l-3,8.1h-10l16.4-40.7H401z M392.1,34.8h9.2L396.7,23L392.1,34.8z"/>
			<path class="st0" d="M435.8,10.4c7.9,0,13.9,4.1,13.9,12.5c0,6.4-3.4,10.6-8.5,12.3l13.3,15.9h-11.8L431,36h-0.7v15.1H421V10.4
				H435.8z M430.2,28.6h2.6c3.6,0,7.1-1.2,7.1-5.4c0-4.2-3.5-5.4-7.1-5.4h-2.6V28.6z"/>
			<path class="st0" d="M482.3,10.4v8.1h-9.7v32.5h-9.3V18.6h-9.7v-8.1H482.3z"/>
			<path class="st0" d="M496.9,10.4l16.3,25.2V10.4h9.3v40.7h-9.3l-16.3-25.2v25.2h-9.3V10.4H496.9z"/>
			<path class="st0" d="M553.5,10.4v8.1h-14v8.1h13.4v8.1h-13.4V43h14v8.1h-23.3V10.4H553.5z"/>
			<path class="st0" d="M575.7,10.4c7.9,0,13.9,4.1,13.9,12.5c0,6.4-3.4,10.6-8.5,12.3l13.3,15.9h-11.8L570.8,36h-0.7v15.1h-9.3
				V10.4H575.7z M570.1,28.6h2.6c3.6,0,7.1-1.2,7.1-5.4c0-4.2-3.5-5.4-7.1-5.4h-2.6V28.6z"/>
			<path class="st0" d="M613.1,9.7c7.4,0,12.6,3.9,12.6,3.9l-3.7,7.4c0,0-4-2.9-8.2-2.9c-3.2,0-4.8,1.5-4.8,3.7
				c0,2.3,3.8,3.9,8.5,5.9c4.5,1.9,9.5,5.8,9.5,11.1c0,9.7-7.4,13.1-15.3,13.1c-9.5,0-15.3-5.4-15.3-5.4l4.6-7.8c0,0,5.4,4.6,10,4.6
				c2,0,5.9-0.2,5.9-4c0-3-4.3-4.3-9.2-6.7c-4.9-2.4-7.7-6.2-7.7-10.4C599.8,14.6,606.5,9.7,613.1,9.7z"/>
		</g>
	</g>
</g>
<g>
	<g>
		<path class="st0" d="M429.1,115.8c2.8,2.4,6.2,3.6,9.6,3.6c0.7,0,1.5-0.1,2.2-0.2c12.8-2.1,23.4-24.7,23.4-35.3
			c0-4.4-2-8.5-5.5-11.5c-5.5-4.7-13.6-5.9-18.7-5.1c-9,1.5-18,11.5-18,30.5C422,105.5,424.5,111.9,429.1,115.8z"/>
		<path class="st0" d="M613.9,118c-2.9-2.7-7.3-3.9-11.2-3l-4,0.9l-1.1,3.9c-1.2,3.9-2.9,8.6-5,13.5c0.7-5.5,1-9.4,0.9-11l0-0.9
			l-0.3-0.8c-0.9-2.7-2.8-4.9-5-6.6c0.5-3.5-0.5-7-2.8-10.2c-6.8-9.1-24.1-13.7-32.5-12.3c-12.9,2.1-22,13.7-27.8,27.4
			c-0.7-2.5-2.5-5-5.5-7.5c-4.7-4-15.2-10.3-24.9-8.6c-2.1,0.3-5.8,1-13.9,13.7c-8.2-4.8-18-3.7-21-3.2c-4.2,0.7-6.8,4-9.3,13.1
			l-1.7-0.9c-5.5-3-16.6-4.3-20.9-3.6c-2.2,0.4-7.1,1.2-11.3,13.9c-1.6-1.9-4.4-4-9.1-6.3c-4.1-2-9.9-4.2-14.2-3.5l-1.1,0.2l3.2-2.8
			l-3.9-5.2c-4.4-5.9-12.8-9.1-20.3-7.9c-10.1,1.7-15.2,14.8-16.3,23.6c-3.2-4.5-8-7.2-14-7.8l-0.9-0.1l-0.9,0.1c-3,0.5-6.3,2.4-9,5
			c-1.4,0-2.7,0-4,0.2c-9.5,1.6-18.1,11.3-24.1,23.8c-1.1-2.7-3.4-4.7-5.1-6.1c-5.3-4.2-16.7-10.5-24.9-9.1
			c-1.7,0.3-4.8,0.8-10.9,8.8c3.9-16.9,7.8-30.9,9.6-33.8l2.5-4l-2.8-3.8c-4.4-6.1-18.2-9-24.9-7.8c-5.4,0.9-8,6.3-11,16.7
			c-2,6.8-4.2,16.3-6.4,27.5c-0.4,2.1-0.8,4.3-1.3,6.5c-1.5-0.8-3.1-1.3-4.8-1.3c1.6-5.5,2.9-9,3.4-10l2.1-4.2l-3-3.5
			c-5.7-6.6-18.7-6.9-24.2-6c-5.1,0.8-7.4,5.5-10.2,14.5c-1.5,4.8-3.2,11.2-5,18.8c-1.7,0.3-2.6,0.4-2.9,0.4l-4.2-1.4l-3,4
			c-2.8,3.6-3.5,11.5-0.2,16.9c0.8,1.3,2.5,3.5,5.5,4.9c-0.3,1.5-0.5,2.9-0.7,4.4c-1.4-2.4-3.5-4.5-6-6.1c0-3-1-5.9-2.9-8.6
			c-6.8-9.1-24.1-13.7-32.5-12.3c-12.1,2-22.6,13.2-29.4,31.5c-1,2.6-1.9,5.3-2.6,8.1c-3.9-2.4-10-3-14.9-2.9l-0.2,0l-0.2,0
			c-4.3,0.1-7.6,0.6-7.7,0.6l-4.7,0.8l-1,4.6c0,0.2-1,4.6-2.4,11.5c-9.7,25.5-18.8,35.5-24.1,36.4c-0.3,0-0.5,0.1-0.6,0.1
			c-0.2,0-0.2,0-0.2,0c-0.1-0.1-2.8-2.2-2.8-15.3c0-25.9,12-64.9,27.9-78.5c2.3-2,4.5-3.3,6.7-3.9c0.1,1.3,0.2,2.6,0.2,3.7
			c0,9.4-3.9,16.6-5.9,18.2l-4.3,3.5l2.4,5c2.3,4.8,9.4,8.1,15.3,7.1c11.9-2,24.4-23.1,24.4-41.1c0-8.7-3.5-13.5-6.4-16
			c-5.9-5-13.5-4.6-17.6-4l-0.5,0.1c-4.4-1.6-11.1-2.7-20.9-1.1c-30.8,5.1-54.7,60.8-54.7,105.4c0,20.1,7.6,30.7,14,36.1
			c7.3,6.2,16.9,8.8,26.3,7.3c4.3-0.7,8.4-2.9,12.5-6.6c-0.2,3.5-0.3,6.7-0.2,9.5c0.1,5.5,2.7,8.8,4.8,10.6
			c3.3,2.8,7.6,3.6,11.6,3.6c2.4,0,4.8-0.3,6.8-0.6c2.4-0.4,6.8-1.1,9-4.8l1.2-1.9l-0.2-2.3c-0.4-4.8,1.1-25.8,3.6-44.8
			c2.1,7.9,6.4,12.5,9.9,15.1c4.1,3,9,4.7,13.8,4.7c1.1,0,2.1-0.1,3.2-0.3c8.9-1.5,14.7-8.1,18.8-16.2c0.5,0.5,1.1,1,1.6,1.4
			c5,3.8,11.3,5.2,18.2,4c5.2-0.9,10-3.9,14.5-9.2c5.5,6,13.9,8.6,23.6,7c7.8-1.3,15.2-7.3,22.1-17.9c1.5,1.1,3.1,2.1,4.8,2.9l5.4,2
			c2.7,0.7,5.5,0.8,8.3,0.4l5.5-0.9l0.3-5.6c0.5-8.8,2.5-17.2,5-24.8c-0.2,3.5-0.1,6.6,0.2,9.5c0.8,6.8,4.2,12.7,9.3,16.6
			c5.3,4,12.3,5.6,19.5,4.4c5.9-1,11.3-5,16.5-12.4c6.5,6.2,15.4,8.8,25.4,7.1c24.3-4,38.5-29.2,45.4-46.1c-0.4,4-0.5,7.3-0.3,9.4
			c0.7,8.7,4.9,13.6,8.2,16.3c5.2,4.1,12.5,5.7,19.9,4.5c5.7-0.9,11-4.6,16.1-11.2c5.4,4.7,12.7,6.4,19.1,5.4
			c5.9-1,11.4-4.9,16.4-12c4.6,2.9,10.4,4,16.5,3l5.5-0.9l0.4-5.5c0.6-8.5,2.4-16.8,4.8-24.4c-0.1,2.7,0,5.2,0.2,7.6
			c0.8,6.8,4.1,12.7,9.3,16.6c4.4,3.3,10,4.9,15.9,4.8c-6.2,5.1-8.9,12.4-7.9,21.4c0.5,7.4,4.7,14.7,11.4,20c7.8,6.2,17.9,9,27,7.5
			c16.6-2.7,30.5-19.6,41.6-50.1c16.6-12.2,34.1-46.3,38.1-68.2C617.1,122.8,616.1,120.1,613.9,118z M528.1,186.5
			c-2.1,0.4-4.1,0.9-6,1.4c1.1-1.1,2.1-2.4,3.2-3.8C526.2,185,527.1,185.8,528.1,186.5z M560.7,119.2c-3.4,11.5-6.6,21.2-9.5,28.7
			c0.4-2.6,1-5.3,1.7-8.3c2.6-10.8,5.5-17.4,7.7-20.9C560.6,118.9,560.7,119,560.7,119.2z M541.4,207.4c-5,10.7-8.4,11.6-8.9,11.7
			c-0.1,0-0.6,0.1-1.4-0.6c-1.5-1.2-2.6-3.7-2.7-5.8c-0.1-2.5-0.1-3,12-5.2C540.8,207.5,541.1,207.4,541.4,207.4z M145.7,187.5
			c-3.8,12.6-7,22-9.7,29c0.4-2.6,1-5.4,1.7-8.4c2.6-11.1,5.7-17.8,7.9-21.1C145.7,187.1,145.7,187.3,145.7,187.5z M214.2,177.8
			c4-0.9,6.5-1.4,8-1.6c-1.5,9.6-2.6,18.5-3.2,25.3c-4.5,9.2-8.2,14.4-10.7,17C208,212.5,209.1,199.9,214.2,177.8z M411.8,161.3
			c-0.3,2.7-0.5,5.6-0.7,8.7c-1.4,3.1-2.7,5.6-3.8,7.6C408.3,172.5,410,166.7,411.8,161.3z M359.4,149.8c0.9,0.9,2,1.8,3.2,2.5
			c0,0.1-0.1,0.3-0.1,0.4c-1.4,4.7-2.7,9.2-3.4,11.3c-6.3,17-17.9,35.7-27,37.2c-1.6,0.3-2.3-0.1-2.8-0.6c-0.7-0.6-1.4-1.7-1.8-3
			c3.9-0.5,7.8-2.1,11.5-4.7c11.7-8.3,20.5-26.8,20.5-43C359.4,149.9,359.4,149.9,359.4,149.8z"/>
	</g>
	<g>
		<path class="st1" d="M80.4,180.3c0.8,1.7,4.7,3.7,7.8,3.2c7.6-1.3,18.5-18.9,18.5-34.2c0-14.8-12.6-13.6-15.9-13l-2.5,0.4
			c-2.3-1.1-8.2-3.2-19-1.4c-25.1,4.2-48.8,54-48.8,98.5c0,29.5,18.1,38.8,32.1,36.5c9.3-1.5,17.5-14.2,23.9-27.8
			c-2.1,13.3-3.7,27.2-3.5,37.5c0.2,8.8,10.5,7.5,15,6.8c2.3-0.4,3.7-0.8,4.1-1.5c-0.8-9.3,4.3-65.6,10.3-79.2
			c-1.4-2.4-12.8-2.8-18.7-1.8c0,0-1,4.7-2.5,11.9c-5.6,14.7-16.5,39.2-29.7,41.4c-7,1.2-11.7-4.2-11.7-22.2
			c0-35.6,20.8-94.1,47.8-89.7c0.6,3.6,1,7.7,1,11C88.9,167.4,84.5,176.9,80.4,180.3z"/>
		<path class="st1" d="M439.7,112.3c8-1.3,17.5-19.8,17.5-28.4c0-7.6-10.5-10.6-16.1-9.7c-8.9,1.5-12.2,14.6-12.2,23.6
			C429,108.9,435.2,113.1,439.7,112.3z"/>
		<path class="st1" d="M604.3,121.8c-4.3,14.7-16.1,39.1-27.2,52.5c6.8-24.6,9.7-48,9.5-51.6c-0.6-2-3.7-4.3-7.4-6
			c0.6-0.3,1-0.8,1.4-1.5c5.2-10.3-17.9-18.3-26.6-16.8c-18.7,3.1-29.2,35.4-30.3,57.4c-4.3,9.8-9.6,19.5-13.8,20.2
			c-9.7,1.6,4.9-47.6,8.4-54.6c0-3.7-13.6-13.2-22.7-11.7c-4.1,0.7-17.1,21.8-25.1,42.9c2.7-12.2,6.4-24.3,8.2-29
			c-5.8-4.4-14-4.1-17.9-3.4c-3.3,0.5-9.1,30.4-10,48.6c-3.9,9-8.5,17.5-12.3,18.1c-1.9,0.3-2.9-1.6-2.9-6.5
			c0-13.2,7.2-43.8,9.7-48.8c-4.1-2.2-13.6-3.3-16.5-2.8c-6.2,1-10,26.3-11.1,43.1c-4.5,10-10.1,20.2-14.5,20.9
			c-1.9,0.3-4.3-1.3-4.3-6.3c0-13.2,10.3-40,12.8-45c-0.6-3.2-13.6-9.3-17.5-8.6c-1.6,0.9-9.9,5.8-15.7,6.7c2.1-5.9,5.8-16,7.2-17.3
			c-2.9-3.9-8.7-6-13.6-5.2c-6.4,1.1-10.7,13.3-10.7,20.3c0,5.8,3.1,9.6,9.5,10.6c-2,6.8-4.4,15.2-5.5,18.4
			c-5.8,15.6-18.4,39.5-32.4,41.8c-9.1,1.5-13.6-6.8-13.6-15.5V190c17.3,6,32.8-20.9,32.8-40c0-9.1-3.5-16.3-12.2-17.2
			c-2.1,0.3-5.4,2.5-7.2,5.5c-2.1-0.5-4.1-0.6-5.8-0.3c-13.8,2.3-27.2,31.9-27.2,54.6c0,0.9,0,1.7,0.1,2.6
			c-4.2,9.5-9.2,18.3-13.1,19c-9.7,1.6,4.9-48.8,8.7-55.8c-0.2-3.7-15.7-12.9-22.7-11.7c-4.5,0.7-19.8,23.9-27.4,45.9
			c3.7-28.6,14.6-74.7,19-81.6c-2.3-3.1-12.8-5.9-18.1-5c-5.9,1-18.3,69.5-20.7,97.4c-6.2,13.2-13.5,23.5-19.3,24.4
			c-9.5,1.6-4.5-29.1,1.9-55.7c8.2-2,15.9-3.6,16.9-2.8c2.5-7.6,0.4-14.7-4.7-13.8c-1.9,0.3-4.9,1.2-8.4,2.2
			c2.9-11.2,5.8-19.9,7-22.4c-3.1-3.6-12.6-4.5-17.7-3.7c-2.5,0.4-6.6,14.7-10.5,32.2c-4.7,1.2-8.9,1.9-10.5,1.3
			c-1.4,1.9-2.7,13.4,7.6,11.7l0.2,0c-2.2,11.6-4,23.5-4.7,32.9c-4,9.5-9.2,19.3-13.6,20c-5.4,0.9-1.4-20.8,4.1-37.6
			c-1.4-3.7-5.2-6.2-9.1-7.4l0.6-0.9c5.2-10.3-17.9-18.3-26.6-16.8c-21.6,3.6-32.3,46.3-30.1,66.8c1.9,15.1,12.8,19.9,19.8,18.8
			c9.7-1.6,15.2-13.2,19.4-27.3c0,0.4,0,1,0.2,1.4c1,10.1,8,17,19.2,15.2c6.3-1,11.8-7.7,16.3-15.8c2.1,8.9,9.3,15.7,21.8,13.6
			c8.5-1.4,16-11.4,21.8-22.4c3.5,5.3,11.4,11,18.8,9.8c1.6-26.9,15.2-49.7,21.6-60c3.1-5,5.4-5,4.1-0.5c-3.1,11.2-8,31.4-6.6,44.8
			c1.2,10.1,9.7,16.7,20.8,14.9c6.5-1.1,12.3-9,17-18.3c4.1,9.2,12.4,15.1,24.8,13.1c32.1-5.3,44.9-56.2,44.9-56.2
			c0-0.1-0.1-0.1-0.1-0.2l4.8-16.5c3.5-0.4,7.6-1.5,12.6-3.1c-5.8,11.9-9.7,37.9-9.1,45.6c1,12.8,11.9,15.7,20,14.4
			c6.5-1.1,12.4-8.4,17.3-17.1c2.6,9.9,12.5,12.2,17.9,11.3c6.3-1,11.9-8,16.3-16.4c2.8,5.6,9.1,8.7,16.6,7.4
			c1.9-26.9,15.5-52,21.8-62.3c3.3-5.1,5.6-5,4.3-0.5c-2.9,11.2-8.7,32.3-7.2,45.7c1.2,10.1,9.7,16.7,21,14.9c6-1,11.6-8.2,16.1-17
			c3.5,10.7,12.5,14.1,18.5,13.1c8.4-1.4,13.8-10.5,17.7-22.3c-1.6,8.9-3.7,18.3-6.2,26.8c-22.9,6-52.5,3.7-49.9,27.4
			c0.8,12.6,16.3,23.5,30.3,21.2c16.7-2.8,28.6-24.1,36.9-47.7c15-9.3,33.2-43.6,37.1-65.1C609.9,123.2,607.2,121.1,604.3,121.8z
			 M336.3,148.8c5.8,5-0.6,35.5-16.1,35.2C322.5,169.2,329.9,153.5,336.3,148.8z M130.9,239.5c-8.7,1.4,1.6-59.6,15.5-61.9
			c3.3-0.5,5.4,2.8,6.6,10.2C148.4,203.1,137.3,238.5,130.9,239.5z M533.7,226c-6.6,1.1-11.9-6.3-12.2-13
			c-0.4-12.1,11.3-10.1,31.1-15C547.5,213.2,541.3,224.7,533.7,226z M546,171c-8.7,1.4,1.6-59.6,15.5-61.9c3.3-0.5,5.2,2.9,6.4,10.5
			C563.5,134.5,552.4,169.9,546,171z"/>
	</g>
</g>
</svg>
